# Blender v2.90.0 OBJ File: ''
# www.blender.org
mtllib cube.mtl
o Cube.001
v 1.000000 1.000000 1.000000
v -1.000000 1.000000 -1.000000
v 1.000000 1.000000 -1.000000
v -1.000000 -1.000000 1.000000
v 1.000000 -1.000000 1.000000
v -1.000000 -1.000000 -1.000000
v -1.000000 1.000000 1.000000
v 1.000000 -1.000000 -1.000000
vt 0.421700 0.096125
vt 0.623637 0.096125
vt 0.623637 0.298063
vt 0.421700 0.500000
vt 0.421700 0.701937
vt 0.219763 0.701937
vt 0.623637 0.500000
vt 0.421700 0.298063
vt 0.623637 0.701937
vt 0.623637 0.903875
vt 0.825575 0.500000
vt 0.219763 0.500000
vt 0.421700 0.903875
vt 0.825575 0.701937
vn 0.0000 1.0000 0.0000
vn 0.0000 -0.0000 1.0000
vn -1.0000 0.0000 0.0000
vn 0.0000 -1.0000 -0.0000
vn 1.0000 0.0000 0.0000
vn 0.0000 0.0000 -1.0000
usemtl Material
s 1
f 1/1/1 3/2/1 2/3/1
f 4/4/2 5/5/2 1/6/2
f 6/7/3 4/4/3 7/8/3
f 4/4/4 6/7/4 8/9/4
f 5/5/5 8/9/5 3/10/5
f 8/9/6 6/7/6 2/11/6
f 1/1/1 2/3/1 7/8/1
f 4/4/2 1/6/2 7/12/2
f 6/7/3 7/8/3 2/3/3
f 4/4/4 8/9/4 5/5/4
f 5/5/5 3/10/5 1/13/5
f 8/9/6 2/11/6 3/14/6