# Blender v2.90.0 OBJ File: ''
# www.blender.org
mtllib cube.mtl
o Cube
v -1.000000 1.000000 -1.000000
v -1.000000 1.000000 1.000000
v -1.000000 -1.000000 -1.000000
v -1.000000 -1.000000 1.000000
v 1.000000 1.000000 -1.000000
v 1.000000 1.000000 1.000000
v 1.000000 -1.000000 -1.000000
v 1.000000 -1.000000 1.000000
vt 0.318182 0.984848
vt 0.015152 0.681818
vt 0.318182 0.681818
vt 0.348485 0.348485
vt 0.651515 0.651515
vt 0.348485 0.651515
vt 0.348485 0.318182
vt 0.651515 0.015152
vt 0.651515 0.318182
vt 0.681818 0.318182
vt 0.984848 0.015152
vt 0.984848 0.318182
vt 0.015152 0.318182
vt 0.318182 0.015152
vt 0.318182 0.318182
vt 0.015152 0.651515
vt 0.318182 0.348485
vt 0.318182 0.651515
vt 0.015152 0.984848
vt 0.651515 0.348485
vt 0.348485 0.015152
vt 0.681818 0.015152
vt 0.015152 0.015152
vt 0.015152 0.348485
vn 0.0000 0.0000 -1.0000
vn 0.0000 -1.0000 0.0000
vn 1.0000 0.0000 0.0000
vn 0.0000 0.0000 1.0000
vn -1.0000 0.0000 0.0000
vn 0.0000 1.0000 0.0000
usemtl Material
s off
f 5/1/1 3/2/1 1/3/1
f 3/4/2 8/5/2 4/6/2
f 7/7/3 6/8/3 8/9/3
f 2/10/4 8/11/4 6/12/4
f 1/13/5 4/14/5 2/15/5
f 5/16/6 2/17/6 6/18/6
f 5/1/1 7/19/1 3/2/1
f 3/4/2 7/20/2 8/5/2
f 7/7/3 5/21/3 6/8/3
f 2/10/4 4/22/4 8/11/4
f 1/13/5 3/23/5 4/14/5
f 5/16/6 1/24/6 2/17/6
