# Blender v2.80 (sub 75) OBJ File: ''
# www.blender.org
mtllib materials_test.mtl
o Cube_Cube.001
v -1.000000 0.000000 0.000000
v -1.000000 2.000000 0.000000
v -1.000000 0.000000 -1.000000
v -1.000000 2.000000 -1.000000
v 1.000000 0.000000 0.000000
v 1.000000 2.000000 0.000000
v 1.000000 0.000000 -1.000000
v 1.000000 2.000000 -1.000000
v -0.800000 0.200000 0.000000
v -0.800000 1.800000 0.000000
v 0.800000 1.800000 0.000000
v 0.800000 0.200000 0.000000
v -0.800000 0.200000 -0.100000
v -0.800000 1.800000 -0.100000
v 0.800000 1.800000 -0.100000
v 0.800000 0.200000 -0.100000
v -1.000000 0.000000 -0.666667
v -1.000000 0.000000 -0.333333
v -1.000000 2.000000 -0.333333
v -1.000000 2.000000 -0.666667
v 1.000000 0.000000 -0.333333
v 1.000000 0.000000 -0.666667
v 1.000000 2.000000 -0.666667
v 1.000000 2.000000 -0.333333
v -0.622699 0.377301 -0.666667
v -0.622699 0.377301 -0.333333
v -0.622699 1.622699 -0.333333
v -0.622699 1.622699 -0.666667
v 0.622699 0.377301 -0.333333
v 0.622699 0.377301 -0.666667
v 0.622699 1.622699 -0.666667
v 0.622699 1.622699 -0.333333
v 0.000000 0.000000 -1.000000
v 0.000000 2.743716 -1.000000
v 0.000000 0.000000 0.000000
v 0.000000 2.743716 0.000000
v 0.000000 0.200000 0.000000
v 0.000000 1.800000 0.000000
v 0.000000 0.200000 -0.100000
v 0.000000 1.800000 -0.100000
v 0.000000 2.743716 -0.666667
v 0.000000 2.743716 -0.333333
v 0.000000 0.000000 -0.666667
v 0.000000 0.000000 -0.333333
v 0.000000 1.622699 -0.666667
v 0.000000 1.622699 -0.333333
v 0.000000 0.377301 -0.666667
v 0.000000 0.377301 -0.333333
v -2.096768 1.100000 0.000000
v -1.000000 1.100000 -1.000000
v 1.000000 1.100000 -1.000000
v 1.000000 1.100000 0.000000
v -0.800000 1.080000 0.000000
v 0.800000 1.080000 0.000000
v -0.800000 1.080000 -0.100000
v 0.800000 1.080000 -0.100000
v 1.000000 1.100000 -0.666667
v 1.000000 1.100000 -0.333333
v -2.096768 1.100000 -0.333333
v -1.000000 1.100000 -0.666667
v 0.622699 1.062270 -0.666667
v 0.622699 1.062270 -0.333333
v -0.622699 1.062270 -0.333333
v -0.622699 1.062270 -0.666667
v 0.000000 1.080000 -0.100000
v 0.000000 1.509044 -1.000000
vt 0.648457 0.579395
vt 0.623830 0.597637
vt 0.623830 0.579395
vt 0.883441 0.628906
vt 0.976990 0.732850
vt 0.883441 0.732850
vt 0.146683 0.949032
vt 0.116622 0.971300
vt 0.116622 0.949032
vt 0.297485 0.809088
vt 0.352140 0.954027
vt 0.301723 0.954875
vt 0.079879 0.949032
vt 0.046477 0.971300
vt 0.046477 0.949032
vt 0.213487 0.949032
vt 0.180085 0.971300
vt 0.180085 0.949032
vt 0.778051 0.222933
vt 0.828969 0.086937
vt 0.772416 0.190379
vt 0.385412 0.783905
vt 0.458703 0.944197
vt 0.397562 0.947437
vt 0.427237 0.799055
vt 0.410253 0.901557
vt 0.442807 0.892794
vt 0.313854 0.811639
vt 0.372566 0.920319
vt 0.329046 0.920904
vt 0.002953 0.501305
vt 0.446823 0.002874
vt 0.447505 0.500695
vt 0.830669 0.047284
vt 0.868831 0.096112
vt 0.869807 0.042987
vt 0.961811 0.160925
vt 0.900369 0.103568
vt 0.951526 0.148524
vt 0.941240 0.136122
vt 0.885838 0.083950
vt 0.867805 0.175187
vt 0.703182 0.652363
vt 0.675819 0.670605
vt 0.675819 0.652363
vt 0.935015 0.429818
vt 0.968929 0.429818
vt 0.935015 0.429818
vt 0.593731 0.652363
vt 0.566368 0.670605
vt 0.566368 0.652363
vt 0.864468 0.425168
vt 0.898382 0.425168
vt 0.864468 0.425168
vt 0.648457 0.652363
vt 0.623830 0.670605
vt 0.623830 0.652363
vt 0.870579 0.429818
vt 0.901101 0.429818
vt 0.870579 0.429818
vt 0.146683 0.770888
vt 0.116622 0.793156
vt 0.116622 0.770888
vt 0.404649 0.563972
vt 0.377965 0.563972
vt 0.377965 0.563972
vt 0.870579 0.331900
vt 0.833274 0.331900
vt 0.870579 0.331900
vt 0.377965 0.689934
vt 0.345351 0.689934
vt 0.377965 0.689934
vt 0.315702 0.689934
vt 0.286053 0.689934
vt 0.315702 0.689934
vt 0.434298 0.689934
vt 0.404649 0.689934
vt 0.434298 0.689934
vt 0.463947 0.689934
vt 0.463947 0.689934
vt 0.345351 0.689934
vt 0.830554 0.425168
vt 0.830554 0.425168
vt 0.539005 0.670605
vt 0.539005 0.652363
vt 0.901101 0.429818
vt 0.648457 0.670605
vt 0.947441 0.015207
vt 0.003636 0.999126
vt 0.448187 0.998517
vt 0.339349 0.787133
vt 0.299166 0.942950
vt 0.280932 0.795421
vt 0.847391 0.005906
vt 0.766781 0.157825
vt 0.146683 0.971300
vt 0.013075 0.971300
vt 0.013075 0.949032
vt 0.420192 0.800147
vt 0.372968 0.950101
vt 0.372968 0.802747
vt 0.976990 0.524963
vt 0.883441 0.524963
vt 0.769104 0.628906
vt 0.769104 0.524963
vt 0.990846 0.499951
vt 0.991528 0.997772
vt 0.404649 0.689934
vt 0.901101 0.331900
vt 0.901101 0.331900
vt 0.345351 0.563972
vt 0.345351 0.563972
vt 0.079879 0.793156
vt 0.079879 0.770888
vt 0.833274 0.429818
vt 0.833274 0.429818
vt 0.593731 0.670605
vt 0.810547 0.167969
vt 0.909641 0.096112
vt 0.901829 0.039472
vt 0.990164 0.002129
vt 0.455545 0.969490
vt 0.429706 0.976800
vt 0.322834 0.951397
vt 0.295834 0.774995
vt 0.079879 0.971300
vt 0.769104 0.732850
vt 0.593731 0.597637
vt 0.593731 0.579395
vt 0.648457 0.597637
vt 0.976990 0.628906
vt 0.343664 0.806545
vt 0.213487 0.971300
vt 0.458703 0.791195
vt 0.386477 0.809593
vt 0.355037 0.805796
vt 0.002271 0.003483
vt 0.818951 0.096112
vt 0.853297 0.191929
vt 0.703182 0.670605
vt 0.968929 0.429818
vt 0.898382 0.425168
vt 0.146683 0.793156
vt 0.404649 0.563972
vt 0.833274 0.331900
vt 0.286053 0.689934
vt 0.360898 0.942121
vt 0.424526 0.949234
vt 0.875000 0.583333
vt 0.750000 0.666667
vt 0.750000 0.583333
vt 0.375000 0.583333
vt 0.250000 0.666667
vt 0.250000 0.583333
vt 0.625000 0.583333
vt 0.512500 0.666667
vt 0.512500 0.583333
vt 0.625000 0.083333
vt 0.512500 0.166667
vt 0.512500 0.083333
vt 0.125000 0.666667
vt 0.125000 0.583333
vt 0.625000 0.666667
vt 0.375000 0.166667
vt 0.375000 0.083333
vt 0.375000 0.666667
vt 0.875000 0.666667
vt 0.625000 0.166667
vn -1.0000 0.0000 0.0000
vn 0.0000 0.0000 -1.0000
vn 1.0000 0.0000 0.0000
vn 0.0000 0.0000 1.0000
vn 0.0000 -1.0000 0.0000
vn -0.5968 0.8024 0.0000
vn 0.0000 1.0000 0.0000
vn -0.6344 0.7730 0.0000
vn 0.5968 0.8024 0.0000
vn -0.7081 -0.7061 0.0000
usemtl Material.003
s off
f 20/1/1 50/2/1 60/3/1
f 66/4/2 8/5/2 51/6/2
f 24/7/3 52/8/3 58/9/3
f 36/10/4 10/11/4 38/12/4
f 21/13/5 35/14/5 44/15/5
f 19/16/6 36/17/6 42/18/6
f 12/19/7 39/20/7 37/21/7
f 52/22/4 11/23/4 54/24/4
f 1/25/4 53/26/4 49/27/4
f 35/28/4 12/29/4 37/30/4
f 40/31/4 55/32/4 65/33/4
f 9/34/3 55/35/3 53/36/3
f 10/37/5 40/38/5 38/39/5
f 11/40/1 56/41/1 54/42/1
f 4/43/6 41/44/6 34/45/6
f 41/46/4 28/47/4 45/48/4
f 7/49/5 43/50/5 33/51/5
f 43/52/4 30/53/4 47/54/4
f 8/55/3 57/56/3 51/57/3
f 57/58/4 31/59/4 61/60/4
f 2/61/8 59/62/8 49/63/8
f 19/64/2 63/65/2 59/66/2
f 60/67/4 25/68/4 64/69/4
f 58/70/2 29/71/2 62/72/2
f 44/73/2 26/74/2 48/75/2
f 42/76/2 32/77/2 46/78/2
f 42/76/2 27/79/2 19/80/2
f 44/73/2 29/71/2 21/81/2
f 43/52/4 25/82/4 17/83/4
f 33/51/5 17/84/5 3/85/5
f 41/46/4 31/59/4 23/86/4
f 34/45/9 23/87/9 8/55/9
f 38/39/5 15/88/5 11/40/5
f 15/89/4 65/33/4 56/90/4
f 35/91/4 9/92/4 1/93/4
f 37/21/7 13/94/7 9/95/7
f 42/18/9 6/96/9 24/7/9
f 44/15/5 1/97/5 18/98/5
f 36/99/4 11/100/4 6/101/4
f 4/102/2 66/4/2 50/103/2
f 50/103/2 33/104/2 3/105/2
f 56/90/4 39/106/4 16/107/4
f 58/70/2 32/77/2 24/108/2
f 60/67/4 28/109/4 20/110/4
f 18/111/2 63/65/2 26/112/2
f 49/63/10 18/113/10 1/114/10
f 57/58/4 30/115/4 22/116/4
f 51/57/3 22/117/3 7/49/3
f 54/42/1 16/118/1 12/19/1
f 53/36/3 14/119/3 10/120/3
f 65/33/4 13/121/4 39/106/4
f 2/122/4 53/26/4 10/123/4
f 52/22/4 12/124/4 5/125/4
f 58/9/3 5/126/3 21/13/3
f 33/104/2 51/6/2 7/127/2
f 60/3/1 3/128/1 17/129/1
f 20/1/1 4/130/1 50/2/1
f 66/4/2 34/131/2 8/5/2
f 24/7/3 6/96/3 52/8/3
f 36/10/4 2/132/4 10/11/4
f 21/13/5 5/126/5 35/14/5
f 19/16/6 2/133/6 36/17/6
f 12/19/7 16/118/7 39/20/7
f 52/22/4 6/134/4 11/23/4
f 1/25/4 9/135/4 53/26/4
f 35/28/4 5/136/4 12/29/4
f 40/31/4 14/137/4 55/32/4
f 9/34/3 13/138/3 55/35/3
f 10/37/5 14/139/5 40/38/5
f 11/40/1 15/88/1 56/41/1
f 4/43/6 20/140/6 41/44/6
f 41/46/4 20/141/4 28/47/4
f 7/49/5 22/117/5 43/50/5
f 43/52/4 22/142/4 30/53/4
f 8/55/3 23/87/3 57/56/3
f 57/58/4 23/86/4 31/59/4
f 2/61/8 19/143/8 59/62/8
f 19/64/2 27/144/2 63/65/2
f 60/67/4 17/145/4 25/68/4
f 58/70/2 21/81/2 29/71/2
f 44/73/2 18/146/2 26/74/2
f 42/76/2 24/108/2 32/77/2
f 42/76/2 46/78/2 27/79/2
f 44/73/2 48/75/2 29/71/2
f 43/52/4 47/54/4 25/82/4
f 33/51/5 43/50/5 17/84/5
f 41/46/4 45/48/4 31/59/4
f 34/45/9 41/44/9 23/87/9
f 38/39/5 40/38/5 15/88/5
f 15/89/4 40/31/4 65/33/4
f 35/91/4 37/147/4 9/92/4
f 37/21/7 39/20/7 13/94/7
f 42/18/9 36/17/9 6/96/9
f 44/15/5 35/14/5 1/97/5
f 36/99/4 38/148/4 11/100/4
f 4/102/2 34/131/2 66/4/2
f 50/103/2 66/4/2 33/104/2
f 56/90/4 65/33/4 39/106/4
f 58/70/2 62/72/2 32/77/2
f 60/67/4 64/69/4 28/109/4
f 18/111/2 59/66/2 63/65/2
f 49/63/10 59/62/10 18/113/10
f 57/58/4 61/60/4 30/115/4
f 51/57/3 57/56/3 22/117/3
f 54/42/1 56/41/1 16/118/1
f 53/36/3 55/35/3 14/119/3
f 65/33/4 55/32/4 13/121/4
f 2/122/4 49/27/4 53/26/4
f 52/22/4 54/24/4 12/124/4
f 58/9/3 52/8/3 5/126/3
f 33/104/2 66/4/2 51/6/2
f 60/3/1 50/2/1 3/128/1
usemtl Flat_material
f 28/149/7 46/150/7 45/151/7
f 30/152/5 48/153/5 47/154/5
f 31/155/3 62/156/3 61/157/3
f 27/158/1 64/159/1 63/160/1
f 47/154/5 26/161/5 25/162/5
f 45/151/7 32/163/7 31/155/7
f 63/160/1 25/164/1 26/165/1
f 61/157/3 29/166/3 30/152/3
f 28/149/7 27/167/7 46/150/7
f 30/152/5 29/166/5 48/153/5
f 31/155/3 32/163/3 62/156/3
f 27/158/1 28/168/1 64/159/1
f 47/154/5 48/153/5 26/161/5
f 45/151/7 46/150/7 32/163/7
f 63/160/1 64/159/1 25/164/1
f 61/157/3 62/156/3 29/166/3
